<?xml version="1.0" encoding="UTF-8"?><svg id="Layer_2" xmlns="http://www.w3.org/2000/svg" width="328.31" height="109.02" viewBox="0 0 328.31 109.02"><defs><style>.cls-1{fill:#fff;}</style></defs><g id="Layer_1-2"><path class="cls-1" d="M10.49,0h12.42v12.45h-12.42V0ZM10.49,25.02h12.42v66.65c0,10.4-7.54,17.35-18.03,17.35H0v-11.73h3.52c4.27,0,6.97-1.94,6.97-6.57V25.02Z"/><path class="cls-1" d="M81.94,60.65v-10.25c0-15.96-11.84-26.1-25.5-26.1-11.95,0-25.49,7.79-25.49,31.84,0,25.36,14.75,31.47,27.46,31.47,8.28,0,16.2-2.94,22.32-10.01l-9.06-7.67c-3.65,3.78-8.78,5.95-13.5,5.95-8.56,0-14.77-5.11-14.77-15.22h38.54ZM43.41,50.4c.25-9.39,5.7-14.41,13.03-14.41s12.7,5.02,13.06,14.41h-26.1.01Z"/><path class="cls-1" d="M91.79,6.26h12.43v18.76h9.05v9.51h-9.05v35.97c0,3.44,1.35,4.64,4.41,4.64h4.64v11.74h-6.46c-8.68,0-15.01-5.52-15.01-15.25v-37.1h-6.24v-9.51h6.24V6.26h-.01Z"/><path class="cls-1" d="M153.38,11.73c9.52,0,14.03,5.74,14.03,12.45s-4.5,12.43-14.03,12.43h-19.04V11.73h19.04ZM121.21,86.87h36.54c13.07,0,24.19-9.66,24.19-24.64,0-8.79-4.65-17.8-14.15-20v-.24c10.11-4.49,12.79-11.47,12.79-18.69C180.58,9.68,171.78.02,154.83.02h-33.62v86.85ZM154.6,48.32c9.76,0,14.15,6.21,14.15,13.05s-4.39,13.05-14.15,13.05h-20.26v-26.1s20.26,0,20.26,0Z"/><path class="cls-1" d="M189.07.02h12.43v70.89c0,2.8,1.59,4.23,4.64,4.23h4.29v11.74h-5.5c-9.01,0-15.86-3.9-15.86-15.01V.02h0Z"/><path class="cls-1" d="M215.67,25.02h12.45v36.83c0,8.41,5.24,13.29,12.29,13.29s12.22-4.87,12.22-13.29V25.02h12.44v61.85h-12.44v-6.6h-.24c-3.89,4.9-9.55,7.34-16,7.34-9.76,0-20.72-7.48-20.72-21.46V25.02h0Z"/><path class="cls-1" d="M322.72,60.65v-10.25c0-15.96-11.82-26.1-25.48-26.1-11.96,0-25.53,7.79-25.53,31.84,0,25.36,14.79,31.47,27.46,31.47,8.28,0,16.24-2.94,22.32-10.01l-9.01-7.67c-3.66,3.78-8.8,5.95-13.53,5.95-8.55,0-14.79-5.11-14.79-15.22h38.56ZM284.16,50.4c.25-9.39,5.74-14.41,13.08-14.41s12.67,5.02,13.05,14.41h-26.13,0Z"/><path class="cls-1" d="M321.81,20.02h.74c.88,0,1.7-.07,1.7-.88,0-.76-.72-.93-1.43-.93h-1.01v1.82h0ZM320.71,17.17h2.45c1.47,0,2.19.65,2.19,1.96s-.72,1.75-1.62,1.86l1.85,2.61h-1.29l-1.83-2.58h-.65v2.58h-1.1v-6.43h0ZM322.81,24.96c2.47,0,4.3-1.81,4.3-4.39s-1.83-4.4-4.3-4.4-4.32,1.81-4.32,4.4,1.83,4.39,4.32,4.39M322.81,15.04c3.01,0,5.5,2.49,5.5,5.52s-2.49,5.47-5.5,5.47-5.54-2.44-5.54-5.47,2.45-5.52,5.54-5.52"/></g></svg>